<?xml version="1.0" encoding="UTF-8"?>
<svg version="1.1" xmlns="http://www.w3.org/2000/svg" width="603" height="524">
<path d="M0 0 C1.88331904 -0.00445668 1.88331904 -0.00445668 3.80468494 -0.0090034 C7.26901109 -0.01701894 10.73331646 -0.01885991 14.19765079 -0.01960087 C17.94217722 -0.02146094 21.68669311 -0.0290129 25.43121338 -0.03573608 C33.60904411 -0.04928027 41.78686992 -0.05533776 49.96471 -0.05974674 C55.07642771 -0.06251531 60.18814355 -0.06675372 65.29986 -0.07125092 C79.46907145 -0.08343754 93.6382814 -0.09373865 107.80749798 -0.09712601 C109.16602744 -0.09745536 109.16602744 -0.09745536 110.55200194 -0.09779136 C111.91366392 -0.09811878 111.91366392 -0.09811878 113.30283421 -0.09845281 C115.14214114 -0.09889626 116.98144807 -0.09934283 118.820755 -0.09979248 C119.73310249 -0.10001391 120.64544998 -0.10023534 121.58544437 -0.10046348 C136.36438308 -0.10441044 151.14327246 -0.12186406 165.92219212 -0.145152 C181.11669334 -0.16890046 196.31116984 -0.18132941 211.50568992 -0.18249393 C220.02834344 -0.18340862 228.55093262 -0.18910922 237.07356834 -0.20731354 C244.3310496 -0.22276164 251.58844662 -0.22780725 258.84594121 -0.21957543 C262.54391324 -0.21568579 266.24171588 -0.2165154 269.93966675 -0.23063278 C273.96095625 -0.24584327 277.981869 -0.23745569 282.00317383 -0.22705078 C283.15466705 -0.23510719 284.30616026 -0.24316359 285.49254721 -0.25146413 C302.33833476 -0.15010357 316.86820377 4.11253724 329.14326477 15.93731689 C330.22027649 17.02786377 330.22027649 17.02786377 331.31904602 18.14044189 C331.88236633 18.68184814 332.44568665 19.22325439 333.02607727 19.78106689 C342.63367992 29.81961742 346.35560843 43.16089142 346.75654602 56.64044189 C346.8086322 57.66186279 346.8086322 57.66186279 346.86177063 58.70391846 C346.96961926 73.35142203 339.46261786 88.56918344 334.33796692 102.01412964 C333.15315657 105.12272379 331.97590989 108.23409564 330.80049133 111.34625244 C329.55750541 114.63719285 328.31412657 117.92797747 327.06855774 121.21794128 C323.08525694 131.74070964 319.1530608 142.28220302 315.23121643 152.82800293 C313.25674613 158.13712036 311.27987696 163.44534467 309.30342102 168.75372314 C308.90160614 169.83313171 308.49979126 170.91254028 308.08580017 172.0246582 C302.70328135 186.48306171 297.31108666 200.93785929 291.91941833 215.39285278 C286.63477381 229.56108439 281.35379852 243.73065887 276.08293152 257.90402222 C272.97454019 266.26114689 269.85920871 274.615666 266.73973083 282.96865845 C264.41090852 289.20652397 262.0920815 295.44800853 259.77920532 301.69180298 C258.24713892 305.82170728 256.70710595 309.94860986 255.16514587 314.0748291 C254.44791903 315.99900273 253.73390105 317.92437625 253.02348328 319.85107422 C247.77077539 334.08917308 242.31232395 347.47464884 232.31904602 359.14044189 C231.64099915 359.96286377 230.96295227 360.78528564 230.26435852 361.63262939 C215.99599797 378.33828997 195.04126493 388.59966499 173.31904602 391.14044189 C170.06946429 391.28156684 166.82393138 391.2882848 163.57162476 391.28761292 C162.60756995 391.2912896 161.64351515 391.29496629 160.65024656 391.29875439 C157.4292452 391.30974205 154.20827616 391.31362662 150.98725891 391.31744385 C148.67411193 391.32371196 146.36096594 391.33035907 144.04782104 391.33735657 C136.46245519 391.35834904 128.87708923 391.36875096 121.29170227 391.37872314 C118.67828804 391.38277178 116.06487391 391.38688874 113.45145988 391.39107323 C102.58327148 391.40793116 91.71508597 391.42256831 80.84688663 391.42982197 C78.03137269 391.43173166 75.21585876 391.43365203 72.40034485 391.43560791 C71.70061676 391.43609165 71.00088866 391.43657539 70.27995669 391.43707379 C58.9370019 391.44537977 47.59415235 391.47073191 36.25124354 391.50318859 C24.59377136 391.53627258 12.93635814 391.55393895 1.27883905 391.55746621 C-5.26178858 391.55981779 -11.80224943 391.56879356 -18.34283257 391.59392738 C-24.49310503 391.6171816 -30.64310053 391.62145182 -36.79340553 391.611166 C-39.04925329 391.61066998 -41.30511458 391.61700994 -43.56092072 391.63072205 C-46.64312916 391.64840836 -49.72433995 391.64135041 -52.80654907 391.62818909 C-54.14182841 391.64464296 -54.14182841 391.64464296 -55.5040831 391.66142923 C-62.11673738 391.59336762 -67.7581865 390.09423663 -72.52079773 385.28106689 C-75.71393047 379.78115143 -77.59960472 375.00590868 -76.08988953 368.65338135 C-72.98251587 358.61085701 -69.28785953 348.8014975 -65.5554657 338.97735596 C-64.44188806 336.04424179 -63.33636476 333.10818589 -62.23173523 330.17169189 C-58.73610399 320.91182278 -55.167381 311.68095383 -51.41142273 302.52325439 C-51.10085937 301.74714813 -50.79029602 300.97104187 -50.47032166 300.17141724 C-47.23243186 292.40785776 -42.86866757 288.00223311 -35.17449951 284.58152771 C-27.49170727 282.09206173 -19.20668927 282.70028844 -11.21781921 282.70806885 C-9.34458777 282.69904346 -7.47136223 282.68871434 -5.59814453 282.67718506 C-0.53270759 282.64968027 4.53261709 282.64033939 9.59811902 282.63433099 C14.89925893 282.62493035 20.20031554 282.59872558 25.50140381 282.57432556 C35.53088945 282.53070338 45.56035889 282.5021301 55.58991045 282.47900218 C67.01195717 282.45192757 78.43391991 282.40801743 89.85590661 282.36271346 C113.34357418 282.26992849 136.83126808 282.19821959 160.31904602 282.14044189 C160.53417941 281.55018754 160.7493128 280.95993319 160.97096539 280.35179234 C180.50317474 226.76810175 180.50317474 226.76810175 189.63154602 202.57794189 C191.37626937 197.942989 193.11920044 193.3073629 194.86201477 188.67169189 C195.30069885 187.50544785 195.73938293 186.3392038 196.19136047 185.13761902 C199.62265071 176.00967799 203.03136743 166.87346806 206.43232727 157.73419189 C206.9421737 156.36448459 207.45202576 154.99477937 207.96188354 153.62507629 C210.17718307 147.67305353 212.39134547 141.72061332 214.60211086 135.76690483 C215.71741528 132.76463964 216.83485223 129.76316798 217.95185852 126.76153564 C218.35088882 125.68500732 218.74991913 124.608479 219.16104126 123.49932861 C219.72096016 121.99608032 219.72096016 121.99608032 220.29219055 120.46246338 C220.61301605 119.59878647 220.93384155 118.73510956 221.26438904 117.84526062 C222.5380182 114.5788564 223.93799351 111.36289775 225.31904602 108.14044189 C149.74904602 108.14044189 74.17904602 108.14044189 -3.68095398 108.14044189 C-4.67095398 111.44044189 -5.66095398 114.74044189 -6.68095398 118.14044189 C-7.45191697 120.35033649 -8.24669348 122.55215435 -9.07157898 124.74249268 C-9.52585266 125.9537381 -9.98012634 127.16498352 -10.44816589 128.41293335 C-10.94237479 129.7205607 -11.43663928 131.02816704 -11.93095398 132.33575439 C-12.45773967 133.73675584 -12.9842204 135.13787199 -13.51042175 136.53909302 C-14.63851272 139.54121098 -15.76865043 142.54254704 -16.9004364 145.54327393 C-18.71403254 150.3517702 -20.52303068 155.16198835 -22.3313446 159.97247314 C-24.54036717 165.8480811 -26.75042254 171.72329841 -28.9618454 177.59800339 C-32.82345328 187.85680429 -36.6769716 198.11861673 -40.52470398 208.38262939 C-40.80034683 209.11790989 -41.07598969 209.85319038 -41.35998535 210.61075211 C-42.74599168 214.30808083 -44.13184322 218.00546755 -45.5176239 221.70288086 C-48.03942834 228.43109905 -50.56262305 235.1587959 -53.08569336 241.88653946 C-54.49250199 245.63781961 -55.89922365 249.38913238 -57.30595398 253.14044189 C-57.86845356 254.64044205 -58.43095356 256.14044205 -58.99345398 257.64044189 C-59.27189148 258.38294189 -59.55032898 259.12544189 -59.83720398 259.89044189 C-130.78251648 449.07794189 -130.78251648 449.07794189 -131.59580803 451.24650574 C-132.1298967 452.67088411 -132.66379922 454.0953323 -133.19751167 455.51985168 C-134.49302441 458.97700116 -135.79158874 462.43293568 -137.09718323 465.8862915 C-139.46520199 472.15949467 -141.8018456 478.43909381 -144.02933025 484.76380157 C-145.06010693 487.68478698 -146.10820906 490.59942419 -147.15756416 493.51377869 C-147.64494687 494.88268633 -148.12394511 496.25461608 -148.59339714 497.629776 C-152.13122089 507.98517666 -156.74257155 517.27531661 -166.71733093 522.73443604 C-173.49132021 525.2301163 -180.98215337 524.69345995 -188.09892273 524.63653564 C-189.68594428 524.63669088 -191.2729662 524.63818395 -192.85998535 524.64094543 C-196.17084198 524.64232346 -199.48126224 524.62986816 -202.79203796 524.60699463 C-207.02543819 524.57854148 -211.25811825 524.58137408 -215.49157238 524.59408474 C-218.76278795 524.60105248 -222.03383827 524.59324136 -225.30503273 524.58082771 C-226.86586688 524.57632876 -228.42671886 524.57596275 -229.98755455 524.57989311 C-232.16982064 524.58281804 -234.35110699 524.56624154 -236.5332489 524.54449463 C-237.77185165 524.53909164 -239.01045441 524.53368866 -240.28659058 524.52812195 C-245.67680986 523.91248943 -249.58076742 521.83501082 -252.99345398 517.64044189 C-253.48458679 517.05262939 -253.9757196 516.46481689 -254.48173523 515.85919189 C-257.59206595 511.40138891 -257.32302705 506.31967044 -256.68095398 501.14044189 C-255.07678515 495.40257495 -252.93691025 489.88748232 -250.80595398 484.32794189 C-250.14079903 482.55576838 -249.47712091 480.78304002 -248.81474304 479.00982666 C-247.30832944 474.98772572 -245.7908392 470.97001392 -244.26591492 466.95489502 C-241.69974162 460.19716493 -239.15439778 453.43168755 -236.61174965 446.66508484 C-232.24910002 435.05612551 -227.87499124 423.45152168 -223.49384117 411.84953308 C-216.66545323 393.76620542 -209.8678621 375.67144477 -203.08423996 357.57128143 C-202.24120607 355.32194416 -201.39806359 353.07264762 -200.55488586 350.82336426 C-196.59608532 340.2626986 -192.63836676 329.70162765 -188.68095398 319.14044189 C-184.16087358 307.07765961 -179.64031236 295.01505781 -175.11845398 282.95294189 C-174.83922718 282.208074 -174.56000038 281.4632061 -174.27231216 280.69576645 C-165.2313873 256.57873807 -156.16036947 232.47316879 -147.07197571 208.37399292 C-139.49245869 188.27530937 -131.9346595 168.16860603 -124.397439 148.05402184 C-122.40229203 142.73006327 -120.40484453 137.40697195 -118.40629578 132.08428955 C-117.29590523 129.12648967 -116.18565258 126.16863806 -115.07548523 123.21075439 C-114.66890843 122.12758879 -114.66890843 122.12758879 -114.25411797 121.02254105 C-110.89450834 112.07014101 -107.55283115 103.1113705 -104.2339325 94.14379883 C-102.41739531 89.23645026 -100.59001368 84.33314764 -98.76219177 79.42999268 C-97.9320983 77.19596424 -97.10628 74.96034146 -96.28526306 72.72296143 C-90.38747189 56.6542088 -84.19105322 42.10349252 -72.68095398 29.14044189 C-72.07896179 28.45594971 -71.4769696 27.77145752 -70.85673523 27.06622314 C-52.20364113 7.16176843 -26.49083179 -0.01974274 0 0 Z " fill="#F9F9F9" transform="translate(256.6809539794922,-0.14044189453125)"/>
</svg>
